<?xml version="1.0" encoding="UTF-8"?>
<svg width="52px" height="52px" viewBox="0 0 52 52" version="1.1" xmlns="http://www.w3.org/2000/svg" xmlns:xlink="http://www.w3.org/1999/xlink">
    <!-- Generator: Sketch 51 (57462) - http://www.bohemiancoding.com/sketch -->
    <title>dressing-on</title>
    <desc>Created with Sketch.</desc>
    <defs></defs>
    <g id="Page-1" stroke="none" stroke-width="1" fill="none" fill-rule="evenodd">
        <g id="Desktop-Copy" transform="translate(-324.000000, -1339.000000)">
            <rect fill="#FFFFFF" x="0" y="0" width="1024" height="3000"></rect>
            <g id="dressing-on" transform="translate(325.000000, 1340.000000)">
                <circle id="Oval-Copy" stroke="#F15B29" fill="#F15B29" cx="25" cy="25" r="25"></circle>
                <g id="noun_olive-oil_1532329" transform="translate(12.000000, 10.000000)" fill="#FFFFFF" fill-rule="nonzero">
                    <path d="M21.9403704,8.60481481 C20.1140741,8.4062963 18.3607407,9.23888889 17.3688889,10.7492593 C16.457037,10.177037 15.4807407,9.7437037 14.4596296,9.45814815 L14.4596296,5.31444444 L14.5418519,5.31444444 C15.1977778,5.31444444 15.7603704,4.8262963 15.822963,4.20296296 C15.8581481,3.85407407 15.7437037,3.50555556 15.5096296,3.24666667 C15.2751852,2.98777778 14.9403704,2.83888889 14.5914815,2.83888889 L14.0585185,2.83888889 L14.0585185,0.370740741 C14.0585185,0.165925926 13.892963,0.00037037037 13.6881481,0.00037037037 L8.87333333,0.00037037037 C8.66851852,0.00037037037 8.50296296,0.165925926 8.50296296,0.370740741 L8.50296296,2.83888889 L6.92962963,2.83888889 C6.59444444,2.83888889 6.29111111,3.02407407 6.13814815,3.32259259 C5.98555556,3.62074074 6.01222222,3.97518519 6.20814815,4.24703704 C6.22888889,4.27555556 6.2537037,4.30111111 6.28148148,4.32296296 L7.58074074,5.33259259 C7.91148148,5.58925926 8.10111111,5.97740741 8.10111111,6.39666667 L8.10111111,9.55296296 C3.45518519,11.0014815 0.234074074,15.3592593 0.234074074,20.2477778 C0.234074074,23.997037 2.09814815,27.4807407 5.22037037,29.5674074 C5.28111111,29.6081481 5.35259259,29.63 5.4262963,29.63 L17.4488889,29.63 C17.5222222,29.63 17.5940741,29.6081481 17.6548148,29.5674074 C20.777037,27.4807407 22.6411111,23.997037 22.6411111,20.2477778 C22.6411111,19.542963 22.5692593,18.8222222 22.4274074,18.1011111 C24.7581481,17.5959259 26.3925926,15.4344444 26.2040741,13.0111111 C26.0274074,10.7459259 24.1948148,8.85148148 21.9403704,8.60481481 Z M9.24333333,0.741111111 L13.3174074,0.741111111 L13.3174074,2.83888889 L9.24333333,2.83888889 L9.24333333,0.741111111 Z M17.3351852,28.8892593 L5.53962963,28.8892593 C2.67888889,26.9340741 0.974814815,23.7118519 0.974814815,20.2477778 C0.974814815,19.957037 0.987037037,19.6685185 1.01111111,19.3825926 L21.8577778,19.3825926 C21.882963,19.672963 21.9,19.9622222 21.9,20.2477778 C21.9,23.7118519 20.1955556,26.9340741 17.3351852,28.8892593 Z M21.9359259,17.4351852 C21.8325926,17.4488889 21.7396296,17.5051852 21.6803704,17.5914815 C21.6207407,17.677037 21.6,17.7840741 21.6237037,17.8859259 C21.6822222,18.1381481 21.7277778,18.3903704 21.7677778,18.6418519 L1.1037037,18.6418519 C1.72740741,14.6674074 4.62185185,11.3081481 8.57259259,10.1851852 C8.73185185,10.14 8.84185185,9.99444444 8.84185185,9.82888889 L8.84185185,6.3962963 C8.84185185,5.74666667 8.54777778,5.14555556 8.03481481,4.74703704 L6.79037037,3.78 C6.76962963,3.72925926 6.78444444,3.68481481 6.79740741,3.66 C6.81296296,3.63 6.85074074,3.57962963 6.92925926,3.57962963 L14.5914815,3.57962963 C14.7337037,3.57962963 14.8648148,3.63777778 14.9603704,3.74333333 C15.0559259,3.84851852 15.1003704,3.98555556 15.0859259,4.12888889 C15.0611111,4.37814815 14.8218519,4.57333333 14.5418519,4.57333333 L14.0892593,4.57333333 C13.8844444,4.57333333 13.7188889,4.73888889 13.7188889,4.9437037 L13.7188889,9.74259259 C13.7188889,9.91222222 13.8344444,10.06 13.9988889,10.1018519 C15.162963,10.3948148 16.267037,10.8907407 17.2814815,11.5759259 C17.3677778,11.6340741 17.4744444,11.6525926 17.5762963,11.6288889 C17.6774074,11.6044444 17.7640741,11.5377778 17.8140741,11.4462963 C18.6107407,9.98555556 20.1992593,9.16037037 21.8603704,9.34111111 C23.7662963,9.54962963 25.3162963,11.1522222 25.4651852,13.0677778 C25.6337037,15.2340741 24.0833333,17.1522222 21.9359259,17.4351852 Z" id="Shape"></path>
                    <path d="M21.3340741,10.8366667 C19.8596296,10.8366667 18.66,12.0359259 18.66,13.5103704 C18.66,14.9848148 19.8592593,16.1844444 21.3340741,16.1844444 C22.8088889,16.1844444 24.0081481,14.9851852 24.0081481,13.5103704 C24.0077778,12.0359259 22.8085185,10.8366667 21.3340741,10.8366667 Z M21.3340741,15.4433333 C20.2681481,15.4433333 19.4007407,14.5759259 19.4007407,13.51 C19.4007407,12.4440741 20.2681481,11.577037 21.3340741,11.577037 C22.4,11.577037 23.2674074,12.4440741 23.2674074,13.51 C23.2674074,14.5759259 22.3996296,15.4433333 21.3340741,15.4433333 Z" id="Shape"></path>
                </g>
            </g>
        </g>
    </g>
</svg>