<?xml version="1.0" encoding="UTF-8"?>
<svg width="52px" height="52px" viewBox="0 0 52 52" version="1.1" xmlns="http://www.w3.org/2000/svg" xmlns:xlink="http://www.w3.org/1999/xlink">
    <!-- Generator: Sketch 51 (57462) - http://www.bohemiancoding.com/sketch -->
    <title>bread-off</title>
    <desc>Created with Sketch.</desc>
    <defs></defs>
    <g id="Page-1" stroke="none" stroke-width="1" fill="none" fill-rule="evenodd">
        <g id="Desktop-Copy" transform="translate(-396.000000, -1277.000000)">
            <rect fill="#FFFFFF" x="0" y="0" width="1024" height="3000"></rect>
            <g id="bread-off" transform="translate(397.000000, 1278.000000)">
                <circle id="Oval-Copy-5" stroke="#4A4A4A" stroke-width="0.5" fill="#FFFFFF" cx="25" cy="25" r="25"></circle>
                <g id="noun_Bread_180117-Copy" transform="translate(10.000000, 10.000000)" fill="#4A4A4A" fill-rule="nonzero">
                    <g id="Group">
                        <path d="M22.25,29.6875 C22.1875,29.6875 22.0625,29.6875 22,29.625 L10.0625,24.375 C9.75,24.25 9.625,23.875 9.75,23.5625 L13.9375,13.8125 C13.0625,12.4375 13.1875,11.5 13.4375,10.875 C13.9375,9.75 15.3125,9.125 17.25,9.125 C19,9.125 21.125,9.625 23.125,10.5 C27.6875,12.5 30.4375,15.6875 29.4375,17.9375 C29.1875,18.5625 28.5625,19.3125 27,19.5625 L22.8125,29.3125 C22.75,29.4375 22.625,29.5625 22.4375,29.625 C22.4375,29.6875 22.3125,29.6875 22.25,29.6875 Z M11.125,23.4375 L21.9375,28.1875 L26,18.75 C26.0625,18.5625 26.25,18.375 26.5,18.375 C27.0625,18.3125 28.0625,18.0625 28.3125,17.4375 C28.875,16.125 26.6875,13.4375 22.625,11.625 C20.75,10.8125 18.8125,10.3125 17.25,10.3125 C15.8125,10.3125 14.875,10.6875 14.5625,11.3125 C14.375,11.8125 14.5625,12.5 15.125,13.3125 C15.25,13.5 15.25,13.75 15.1875,13.9375 L11.125,23.4375 Z" id="Shape"></path>
                        <rect id="Rectangle-path" x="17.375" y="14.875" width="1.25" height="1.25"></rect>
                        <rect id="Rectangle-path" transform="translate(20.689906, 21.194187) rotate(69.132794) translate(-20.689906, -21.194187) " x="20.0336622" y="20.5691932" width="1.31248806" height="1.24998862"></rect>
                        <rect id="Rectangle-path" transform="translate(15.806672, 22.687869) rotate(70.610180) translate(-15.806672, -22.687869) " x="15.1816597" y="21.9691048" width="1.25002431" height="1.43752795"></rect>
                        <path d="M7,20.5625 C6.9375,20.5625 6.8125,20.5625 6.75,20.5 C6.625,20.4375 6.5,20.3125 6.4375,20.125 L2.875,10.125 C1.3125,9.75 0.75,8.9375 0.5,8.3125 C-0.375,6.125 2.5625,3.0625 7.25,1.375 C10.4375,0.1875 13.5625,0 15.4375,0.8125 C16.1875,1.1875 16.6875,1.6875 16.9375,2.3125 C17.1875,2.9375 17.1875,3.9375 16.25,5.1875 L17.6875,9.1875 C17.8125,9.5 17.625,9.875 17.3125,10 C17,10.125 16.625,9.9375 16.5,9.625 L14.9375,5.3125 C14.875,5.125 14.875,4.875 15.0625,4.6875 C15.6875,3.9375 15.9375,3.1875 15.75,2.6875 C15.625,2.375 15.375,2.125 14.9375,1.875 C13.375,1.25 10.5,1.5 7.6875,2.5 C3.5,4 1.1875,6.5625 1.625,7.9375 C1.875,8.625 2.8125,8.875 3.375,9 C3.5625,9.0625 3.75,9.1875 3.875,9.375 L7.375,19.125 L12.125,17.375 C12.4375,17.25 12.8125,17.4375 12.9375,17.75 C13.0625,18.0625 12.875,18.4375 12.5625,18.5625 L7.25,20.5 C7.125,20.5625 7.0625,20.5625 7,20.5625 Z" id="Shape"></path>
                        <rect id="Rectangle-path" transform="translate(6.911112, 8.639244) rotate(46.130451) translate(-6.911112, -8.639244) " x="6.28612943" y="8.01426068" width="1.24996613" height="1.24996613"></rect>
                        <rect id="Rectangle-path" transform="translate(12.396100, 8.623066) rotate(25.627162) translate(-12.396100, -8.623066) " x="11.7398701" y="7.99808475" width="1.31245984" height="1.24996176"></rect>
                        <rect id="Rectangle-path" transform="translate(10.182563, 15.340719) rotate(27.000655) translate(-10.182563, -15.340719) " x="9.55756344" y="14.6219698" width="1.24999812" height="1.43749784"></rect>
                    </g>
                </g>
            </g>
        </g>
    </g>
</svg>