<?xml version="1.0" encoding="UTF-8"?>
<svg width="52px" height="52px" viewBox="0 0 52 52" version="1.1" xmlns="http://www.w3.org/2000/svg" xmlns:xlink="http://www.w3.org/1999/xlink">
    <!-- Generator: Sketch 51 (57462) - http://www.bohemiancoding.com/sketch -->
    <title>cheese-on</title>
    <desc>Created with Sketch.</desc>
    <defs></defs>
    <g id="Page-1" stroke="none" stroke-width="1" fill="none" fill-rule="evenodd">
        <g id="Desktop-Copy" transform="translate(-263.000000, -1336.000000)">
            <rect fill="#FFFFFF" x="0" y="0" width="1024" height="3000"></rect>
            <g id="cheese-on" transform="translate(264.000000, 1337.000000)">
                <circle id="Oval" stroke="#F15B29" fill="#F15B29" cx="25" cy="25" r="25"></circle>
                <g id="noun_Cheese_1630592" transform="translate(11.000000, 10.000000)" fill="#FFFFFF" fill-rule="nonzero">
                    <g id="Group">
                        <path d="M7.59375,18.0625 C6.03125,18.0625 4.75,19.34375 4.75,20.90625 C4.75,22.46875 6.03125,23.75 7.59375,23.75 C9.15625,23.75 10.4375,22.46875 10.4375,20.90625 C10.4375,19.34375 9.15625,18.0625 7.59375,18.0625 Z M7.59375,22.90625 C6.46875,22.90625 5.5625,22 5.5625,20.875 C5.5625,19.75 6.46875,18.84375 7.59375,18.84375 C8.71875,18.84375 9.625,19.75 9.625,20.875 C9.625,22 8.71875,22.90625 7.59375,22.90625 Z" id="Shape"></path>
                        <path d="M10.0625,6.5625 C11.3125,6.5625 12.46875,5.4375 12.46875,4.25 C12.46875,3.78125 12.28125,3.34375 11.90625,3.09375 C11.5,2.78125 10.90625,2.71875 10.3125,2.90625 C9.46875,3.15625 8.78125,3.90625 8.59375,4.71875 C8.46875,5.21875 8.5625,5.6875 8.84375,6.03125 C9.125,6.375 9.5625,6.5625 10.0625,6.5625 Z M9.375,4.875 C9.5,4.34375 10,3.84375 10.5625,3.65625 C10.6875,3.625 10.84375,3.59375 10.96875,3.59375 C11.15625,3.59375 11.3125,3.625 11.4375,3.71875 C11.59375,3.84375 11.65625,4 11.65625,4.21875 C11.65625,4.96875 10.84375,5.75 10.03125,5.75 C9.78125,5.75 9.59375,5.65625 9.46875,5.53125 C9.34375,5.375 9.3125,5.125 9.375,4.875 Z" id="Shape"></path>
                        <path d="M21.46875,14.125 C20.21875,14.125 19.1875,15.15625 19.1875,16.40625 C19.1875,17.65625 20.21875,18.6875 21.46875,18.6875 C22.71875,18.6875 23.75,17.65625 23.75,16.40625 C23.75,15.15625 22.71875,14.125 21.46875,14.125 Z M21.46875,17.90625 C20.65625,17.90625 19.96875,17.25 19.96875,16.40625 C19.96875,15.5625 20.625,14.90625 21.46875,14.90625 C22.28125,14.90625 22.96875,15.5625 22.96875,16.40625 C22.96875,17.25 22.28125,17.90625 21.46875,17.90625 Z" id="Shape"></path>
                        <path d="M6.8125,12.53125 C7.125,12.96875 7.65625,13.21875 8.25,13.21875 C9.84375,13.21875 11.4375,11.65625 11.4375,10.0625 C11.4375,9.46875 11.1875,8.9375 10.75,8.625 C10.25,8.25 9.5625,8.1875 8.875,8.40625 C7.84375,8.71875 6.90625,9.65625 6.59375,10.6875 C6.375,11.34375 6.46875,12.03125 6.8125,12.53125 Z M7.34375,10.90625 C7.59375,10.125 8.3125,9.375 9.09375,9.15625 C9.28125,9.09375 9.4375,9.0625 9.625,9.0625 C9.875,9.0625 10.09375,9.125 10.28125,9.25 C10.5,9.40625 10.625,9.6875 10.625,10.03125 C10.625,11.21875 9.4375,12.40625 8.25,12.40625 C7.90625,12.40625 7.625,12.28125 7.46875,12.0625 C7.25,11.78125 7.21875,11.34375 7.34375,10.90625 Z" id="Shape"></path>
                        <path d="M27.96875,17.875 L26.875,8.53125 C26.75,7.46875 26.0625,6.5625 25.0625,6.1875 L20.21875,4.25 C20.125,4.21875 20,4.21875 19.90625,4.25 C19.8125,4.28125 19.71875,4.375 19.6875,4.46875 C19.46875,5.3125 18.625,5.9375 17.8125,5.9375 C17.5,5.9375 17.21875,5.84375 17.0625,5.625 C16.90625,5.40625 16.84375,5.09375 16.90625,4.78125 C16.96875,4.4375 17.1875,4.09375 17.5,3.78125 C17.59375,3.6875 17.625,3.5625 17.625,3.40625 C17.59375,3.28125 17.5,3.15625 17.375,3.125 L10.34375,0.3125 C9.25,-0.125 8,0.375 7.53125,1.46875 L0.375,17.59375 C0.15625,18.0625 0.09375,18.59375 0.15625,19.09375 L1.28125,28.75 C1.3125,29.125 1.53125,29.46875 1.875,29.65625 C2.0625,29.75 2.25,29.8125 2.46875,29.8125 C2.625,29.8125 2.78125,29.78125 2.9375,29.71875 L15.28125,24.34375 C15.40625,24.28125 15.5,24.15625 15.53125,24.03125 C15.53125,23.875 15.46875,23.75 15.375,23.65625 C15.03125,23.40625 14.8125,23 14.8125,22.59375 C14.8125,21.875 15.40625,21.3125 16.09375,21.3125 C16.8125,21.3125 17.375,21.90625 17.375,22.59375 C17.375,22.65625 17.375,22.6875 17.34375,22.78125 C17.3125,22.9375 17.375,23.0625 17.5,23.15625 C17.625,23.25 17.78125,23.25 17.90625,23.21875 L27.25,19.15625 C27.75,18.90625 28.03125,18.40625 27.96875,17.875 Z M8.28125,1.8125 C8.5,1.28125 9.03125,0.96875 9.5625,0.96875 C9.75,0.96875 9.90625,1 10.09375,1.0625 L16.5625,3.6875 C16.34375,3.96875 16.21875,4.3125 16.125,4.625 C16,5.1875 16.09375,5.75 16.4375,6.15625 C16.75,6.5625 17.25,6.78125 17.8125,6.78125 C18.8125,6.78125 19.84375,6.125 20.3125,5.21875 L24.78125,7 C24.9375,7.0625 25.0625,7.125 25.1875,7.21875 L1.25,17.625 L8.28125,1.8125 Z M26.9375,18.40625 L18.15625,22.21875 C17.96875,21.25 17.125,20.5 16.09375,20.5 C14.9375,20.5 14,21.4375 14,22.59375 C14,23.0625 14.15625,23.5 14.4375,23.84375 L2.625,29 C2.5,29.0625 2.375,29.03125 2.28125,28.96875 C2.15625,28.90625 2.09375,28.8125 2.09375,28.65625 L0.9375,19.03125 C0.9375,18.90625 0.9375,18.75 0.9375,18.625 C0.9375,18.625 0.9375,18.625 0.9375,18.625 L25.78125,7.8125 C25.9375,8.0625 26.03125,8.34375 26.09375,8.65625 L27.1875,17.96875 C27.21875,18.15625 27.125,18.3125 26.9375,18.40625 Z" id="Shape"></path>
                    </g>
                </g>
            </g>
        </g>
    </g>
</svg>