<?xml version="1.0" encoding="UTF-8"?>
<svg width="47px" height="48px" viewBox="0 0 47 48" version="1.1" xmlns="http://www.w3.org/2000/svg" xmlns:xlink="http://www.w3.org/1999/xlink">
    <!-- Generator: Sketch 51 (57462) - http://www.bohemiancoding.com/sketch -->
    <title>dressing-off</title>
    <desc>Created with Sketch.</desc>
    <defs></defs>
    <g id="Page-1" stroke="none" stroke-width="1" fill="none" fill-rule="evenodd">
        <g id="Desktop-Copy" transform="translate(-327.000000, -1284.000000)">
            <rect fill="#FFFFFF" x="0" y="0" width="1024" height="3000"></rect>
            <g id="dressing-off" transform="translate(325.000000, 1283.000000)" fill="#4A4A4A" fill-rule="nonzero">
                <path d="M25.4545455,48.2954545 C12.5888212,48.2954545 2.15909091,37.8657243 2.15909091,25 C2.15909091,12.1342757 12.5888212,1.70454545 25.4545455,1.70454545 C38.3202697,1.70454545 48.75,12.1342757 48.75,25 C48.75,37.8657243 38.3202697,48.2954545 25.4545455,48.2954545 Z M25.4545455,47.1590909 C37.6926734,47.1590909 47.6136364,37.238128 47.6136364,25 C47.6136364,12.761872 37.6926734,2.84090909 25.4545455,2.84090909 C13.2164175,2.84090909 3.29545455,12.761872 3.29545455,25 C3.29545455,37.238128 13.2164175,47.1590909 25.4545455,47.1590909 Z" id="Oval-Copy-4"></path>
                <path d="M33.5821549,19.1861953 C31.9218855,19.0057239 30.3279461,19.7626263 29.4262626,21.1356902 C28.5973064,20.6154882 27.7097643,20.2215488 26.7814815,19.9619529 L26.7814815,16.1949495 L26.856229,16.1949495 C27.4525253,16.1949495 27.9639731,15.7511785 28.0208754,15.1845118 C28.052862,14.8673401 27.9488215,14.5505051 27.7360269,14.3151515 C27.5228956,14.079798 27.2185185,13.9444444 26.9013468,13.9444444 L26.416835,13.9444444 L26.416835,11.7006734 C26.416835,11.5144781 26.26633,11.3639731 26.0801347,11.3639731 L21.7030303,11.3639731 C21.516835,11.3639731 21.36633,11.5144781 21.36633,11.7006734 L21.36633,13.9444444 L19.9360269,13.9444444 C19.6313131,13.9444444 19.3555556,14.1127946 19.2164983,14.3841751 C19.0777778,14.6552189 19.1020202,14.9774411 19.2801347,15.2245791 C19.2989899,15.2505051 19.3215488,15.2737374 19.3468013,15.2936027 L20.5279461,16.2114478 C20.8286195,16.4447811 21.0010101,16.7976431 21.0010101,17.1787879 L21.0010101,20.0481481 C16.7774411,21.3649832 13.8491582,25.3265993 13.8491582,29.7707071 C13.8491582,33.1791246 15.543771,36.3461279 18.3821549,38.2430976 C18.4373737,38.2801347 18.5023569,38.3 18.5693603,38.3 L29.4989899,38.3 C29.5656566,38.3 29.6309764,38.2801347 29.6861953,38.2430976 C32.5245791,36.3461279 34.2191919,33.1791246 34.2191919,29.7707071 C34.2191919,29.1299663 34.1538721,28.4747475 34.0249158,27.8191919 C36.143771,27.3599327 37.6296296,25.3949495 37.4582492,23.1919192 C37.2976431,21.1326599 35.6316498,19.4104377 33.5821549,19.1861953 Z M22.0393939,12.0373737 L25.7430976,12.0373737 L25.7430976,13.9444444 L22.0393939,13.9444444 L22.0393939,12.0373737 Z M29.3956229,37.6265993 L18.6723906,37.6265993 C16.0717172,35.8491582 14.5225589,32.9198653 14.5225589,29.7707071 C14.5225589,29.5063973 14.53367,29.2441077 14.5555556,28.9841751 L33.5070707,28.9841751 C33.5299663,29.2481481 33.5454545,29.5111111 33.5454545,29.7707071 C33.5454545,32.9198653 31.9959596,35.8491582 29.3956229,37.6265993 Z M33.5781145,27.2138047 C33.4841751,27.2262626 33.3996633,27.2774411 33.3457912,27.3558923 C33.2915825,27.43367 33.2727273,27.5309764 33.2942761,27.623569 C33.3474747,27.852862 33.3888889,28.0821549 33.4252525,28.3107744 L14.6397306,28.3107744 C15.206734,24.6976431 17.8380471,21.643771 21.4296296,20.6228956 C21.5744108,20.5818182 21.6744108,20.4494949 21.6744108,20.2989899 L21.6744108,17.1784512 C21.6744108,16.5878788 21.4070707,16.0414141 20.9407407,15.6791246 L19.8094276,14.8 C19.7905724,14.7538721 19.8040404,14.713468 19.8158249,14.6909091 C19.8299663,14.6636364 19.8643098,14.6178451 19.9356902,14.6178451 L26.9013468,14.6178451 C27.0306397,14.6178451 27.1498316,14.6707071 27.2367003,14.7666667 C27.323569,14.8622896 27.3639731,14.9868687 27.3508418,15.1171717 C27.3282828,15.343771 27.1107744,15.5212121 26.856229,15.5212121 L26.4447811,15.5212121 C26.2585859,15.5212121 26.1080808,15.6717172 26.1080808,15.8579125 L26.1080808,20.2205387 C26.1080808,20.3747475 26.2131313,20.5090909 26.3626263,20.547138 C27.4208754,20.813468 28.4245791,21.2643098 29.3468013,21.8872054 C29.4252525,21.9400673 29.5222222,21.9569024 29.6148148,21.9353535 C29.706734,21.9131313 29.7855219,21.8525253 29.8309764,21.7693603 C30.5552189,20.4414141 31.9993266,19.6912458 33.5094276,19.8555556 C35.2420875,20.0451178 36.6511785,21.5020202 36.786532,23.2434343 C36.9397306,25.2127946 35.530303,26.9565657 33.5781145,27.2138047 Z" id="Shape"></path>
                <path d="M33.0309764,21.2151515 C31.6905724,21.2151515 30.6,22.3053872 30.6,23.6457912 C30.6,24.9861953 31.6902357,26.0767677 33.0309764,26.0767677 C34.3717172,26.0767677 35.4619529,24.986532 35.4619529,23.6457912 C35.4616162,22.3053872 34.3713805,21.2151515 33.0309764,21.2151515 Z M33.0309764,25.4030303 C32.0619529,25.4030303 31.2734007,24.6144781 31.2734007,23.6454545 C31.2734007,22.676431 32.0619529,21.8882155 33.0309764,21.8882155 C34,21.8882155 34.7885522,22.676431 34.7885522,23.6454545 C34.7885522,24.6144781 33.9996633,25.4030303 33.0309764,25.4030303 Z" id="Shape"></path>
            </g>
        </g>
    </g>
</svg>